<svg data-v-423bf9ae="" xmlns="http://www.w3.org/2000/svg" viewBox="0 0 585.20035252239 60" class="font"><!----><!----><!----><g data-v-423bf9ae="" id="17c3ee92-0f5e-4a95-ad56-e31eeebc63df" fill="white" transform="matrix(4.71327589611677,0,0,4.71327589611677,-1.4611154062427545,-16.496465636408693)"><path d="M5.43 3.68C3.89 3.68 2.63 4.16 1.71 5.11C0.78 6.06 0.31 7.29 0.31 8.81C0.31 10.32 0.76 11.55 1.62 12.50C2.49 13.45 3.67 13.93 5.10 13.93C6.64 13.93 7.84 13.43 8.71 12.42L8.18 11.83C8.12 11.77 8.04 11.75 7.95 11.75C7.87 11.75 7.81 11.79 7.73 11.86C7.36 12.19 6.94 12.42 6.50 12.59C6.19 12.70 5.75 12.75 5.17 12.75C4.16 12.75 3.33 12.42 2.69 11.72C2.02 10.99 1.68 10.01 1.68 8.81C1.68 7.60 2.03 6.64 2.70 5.91C3.77 4.79 5.32 4.55 7.42 5.22C7.42 5.28 7.45 5.49 7.48 5.85C7.50 6.22 7.52 6.43 7.53 6.48C7.56 6.65 7.67 6.73 7.84 6.73L8.51 6.73L8.51 5.17L8.51 4.38C7.24 3.91 6.19 3.67 5.40 3.67ZM12.50 6.62C12.00 6.62 11.54 6.71 11.12 6.89C10.70 7.07 10.35 7.32 10.07 7.63C9.79 7.94 9.56 8.33 9.41 8.75C9.25 9.17 9.17 9.62 9.17 10.12C9.17 10.74 9.25 11.27 9.42 11.75C9.59 12.22 9.81 12.61 10.12 12.94C10.43 13.26 10.78 13.51 11.20 13.68C11.62 13.85 12.07 13.93 12.56 13.93C12.81 13.93 13.08 13.90 13.33 13.86C13.58 13.82 13.83 13.75 14.08 13.66C14.34 13.58 14.55 13.45 14.77 13.31C14.99 13.17 15.18 13.03 15.33 12.84L14.98 12.38C14.92 12.29 14.85 12.25 14.74 12.25C14.66 12.25 14.57 12.29 14.46 12.36C14.35 12.43 14.21 12.50 14.04 12.59C13.87 12.67 13.68 12.75 13.45 12.82C13.23 12.89 12.95 12.92 12.64 12.92C12.31 12.92 12.03 12.87 11.75 12.75C11.47 12.64 11.24 12.47 11.05 12.25C10.85 12.03 10.68 11.77 10.57 11.44C10.46 11.10 10.40 10.71 10.40 10.26L15.11 10.26C15.22 10.26 15.32 10.22 15.36 10.16C15.40 10.11 15.41 9.97 15.41 9.77C15.41 9.27 15.33 8.82 15.19 8.43C15.05 8.04 14.83 7.70 14.57 7.43C14.32 7.17 14.01 6.97 13.65 6.83C13.29 6.69 12.89 6.62 12.47 6.62ZM12.50 7.55C12.78 7.55 13.05 7.59 13.27 7.69C13.50 7.78 13.69 7.92 13.85 8.09C14 8.26 14.10 8.48 14.18 8.72C14.27 8.96 14.31 9.23 14.31 9.51L10.46 9.51C10.54 8.89 10.77 8.40 11.10 8.05C11.44 7.70 11.91 7.53 12.52 7.53ZM23.37 10.23C23.37 9.65 23.30 9.11 23.17 8.67C23.04 8.22 22.86 7.85 22.64 7.55C22.41 7.24 22.13 7.00 21.80 6.85C21.46 6.69 21.10 6.62 20.68 6.62C20.19 6.62 19.77 6.72 19.39 6.93C19.01 7.14 18.68 7.42 18.38 7.76L18.38 3.51L17.16 3.51L17.12 3.51L16.02 3.51L16.02 4.12C16.02 4.24 16.10 4.35 16.23 4.38C16.34 4.41 16.95 4.49 17.12 4.52L17.12 12.40L17.12 13.43L17.12 13.54C17.12 13.54 19.00 13.93 20.26 13.93C20.71 13.93 21.11 13.85 21.49 13.68C21.87 13.51 22.19 13.29 22.47 12.98C22.75 12.67 22.97 12.28 23.14 11.83C23.31 11.38 23.39 10.86 23.39 10.28L23.39 10.26L23.39 10.23ZM21.55 12.25C21.38 12.47 21.15 12.67 20.90 12.78C20.68 12.89 20.43 12.94 20.15 12.95L20.05 12.95L19.78 12.95C19.17 12.92 18.56 12.78 18.38 12.73L18.38 12.11L18.38 10.35L18.38 8.68C18.63 8.34 18.91 8.08 19.22 7.88C19.53 7.69 19.89 7.60 20.30 7.60C20.58 7.60 20.85 7.64 21.07 7.74C21.29 7.84 21.48 8.01 21.63 8.22C21.78 8.43 21.91 8.69 21.99 9.03C22.08 9.37 22.11 9.74 22.11 10.21L22.11 10.32C22.11 10.71 22.05 11.07 21.97 11.38C21.87 11.72 21.73 12.00 21.56 12.22ZM26.35 8.18L26.26 7.07C26.24 6.94 26.21 6.86 26.15 6.80C26.10 6.75 26.03 6.73 25.89 6.73L25.17 6.73L24.16 6.73L24.16 7.32C24.16 7.46 24.23 7.56 24.37 7.59C24.46 7.62 24.72 7.67 25.17 7.76L25.17 12.81L24.37 12.96C24.23 12.99 24.16 13.09 24.16 13.23L24.16 13.82L27.43 13.82L27.43 13.23C27.43 13.09 27.36 12.99 27.22 12.96C26.80 12.88 26.53 12.84 26.42 12.81L26.42 9.31C26.81 8.33 27.43 7.83 28.24 7.83C28.49 7.83 28.67 7.85 28.81 7.90C28.95 7.94 29.06 7.97 29.15 7.97C29.23 7.97 29.30 7.90 29.33 7.78L29.48 6.85C29.20 6.68 28.88 6.59 28.52 6.59C27.59 6.59 26.88 7.13 26.36 8.18ZM36.08 12.95C35.99 12.92 35.57 12.84 35.38 12.80L35.38 9.25C35.38 8.86 35.34 8.50 35.22 8.16C35.11 7.83 34.96 7.55 34.75 7.32C34.54 7.10 34.29 6.93 33.98 6.79C33.67 6.65 33.31 6.59 32.91 6.59C32.35 6.59 31.85 6.68 31.40 6.87C30.95 7.07 30.53 7.34 30.14 7.71L30.37 8.11C30.39 8.16 30.45 8.23 30.51 8.27C30.56 8.32 30.65 8.33 30.73 8.33C30.84 8.33 30.94 8.30 31.05 8.22C31.16 8.13 31.30 8.06 31.46 7.97C31.61 7.87 31.78 7.80 31.99 7.71C32.20 7.63 32.45 7.59 32.76 7.59C33.22 7.59 33.57 7.74 33.81 8.02C34.05 8.30 34.17 8.72 34.17 9.28L34.17 9.83C33.36 9.83 32.69 9.88 32.13 10.01C31.57 10.14 31.12 10.32 30.79 10.51C30.45 10.71 30.18 10.96 30.03 11.21C29.88 11.47 29.81 11.75 29.81 12.03C29.81 12.35 29.85 12.63 29.96 12.87C30.07 13.10 30.21 13.30 30.38 13.45C30.55 13.61 30.77 13.71 31.01 13.79C31.25 13.87 31.49 13.92 31.77 13.92C32.05 13.92 32.30 13.90 32.52 13.85C32.75 13.79 32.94 13.72 33.14 13.64C33.33 13.55 33.53 13.44 33.70 13.30C33.87 13.16 34.06 13.01 34.26 12.84L34.40 13.51C34.43 13.62 34.45 13.71 34.54 13.73C34.62 13.76 34.72 13.79 34.83 13.79L35.28 13.79L35.38 13.79L36.29 13.79L36.29 13.19C36.29 13.06 36.20 12.95 36.08 12.92ZM34.15 12.08C34.01 12.22 33.87 12.36 33.73 12.47C33.59 12.59 33.43 12.70 33.26 12.78C33.10 12.87 32.93 12.92 32.75 12.96C32.56 13.01 32.38 13.03 32.16 13.03C31.99 13.03 31.84 13.01 31.70 12.96C31.56 12.92 31.44 12.87 31.33 12.78C31.22 12.70 31.14 12.59 31.08 12.45C31.02 12.31 30.98 12.17 30.98 11.97C30.98 11.77 31.04 11.61 31.15 11.44C31.26 11.27 31.46 11.13 31.71 11.02C31.96 10.91 32.30 10.79 32.69 10.72C33.08 10.65 33.57 10.63 34.15 10.63ZM39.90 6.62C39.03 6.62 38.39 6.82 37.91 7.24C37.46 7.63 37.24 8.09 37.24 8.67C37.24 9.23 37.44 9.66 37.83 9.98C38.00 10.12 38.21 10.26 38.46 10.37C38.71 10.49 39.14 10.63 39.76 10.82C39.98 10.88 40.18 10.96 40.35 11.05C40.52 11.13 40.66 11.26 40.77 11.38C40.88 11.51 40.94 11.70 40.94 11.97C40.94 12.24 40.81 12.47 40.57 12.68C40.31 12.91 39.94 13.03 39.48 13.03C38.92 13.03 38.43 12.95 38.04 12.75C37.98 12.19 37.95 11.90 37.95 11.86C37.93 11.75 37.86 11.69 37.74 11.69L37.24 11.69L37.24 13.54C38.00 13.79 38.78 13.92 39.54 13.92C40.29 13.92 40.94 13.68 41.41 13.26C41.87 12.85 42.10 12.31 42.10 11.63C42.10 11.12 41.92 10.71 41.52 10.40C41.36 10.26 41.16 10.12 40.94 10.04L40.26 9.79C40.04 9.70 39.75 9.63 39.40 9.52C39.05 9.41 38.78 9.25 38.58 9.03C38.47 8.92 38.42 8.74 38.42 8.50C38.42 8.26 38.54 8.05 38.79 7.85C39.05 7.66 39.37 7.55 39.76 7.55L39.77 7.55C40.08 7.55 40.45 7.60 40.87 7.70C40.92 8.29 40.95 8.60 40.95 8.62C40.98 8.76 41.05 8.82 41.19 8.82L41.73 8.82L41.73 7.49L41.73 7.00C40.99 6.75 40.38 6.62 39.89 6.62ZM44.79 7.83L44.69 6.99C44.63 6.82 44.52 6.73 44.35 6.73L43.60 6.73L42.59 6.73L42.59 7.32C42.59 7.46 42.67 7.56 42.81 7.59C42.90 7.62 43.15 7.67 43.60 7.76L43.60 15.20L42.81 15.36C42.67 15.39 42.59 15.48 42.59 15.62L42.59 16.23L45.86 16.23L45.86 15.62C45.86 15.48 45.78 15.39 45.64 15.36C45.61 15.36 45.47 15.33 45.23 15.27C45.00 15.22 44.87 15.19 44.86 15.19L44.86 13.09C45.36 13.65 46.03 13.92 46.90 13.92C47.77 13.92 48.50 13.55 49.06 12.85C49.59 12.18 49.87 11.30 49.87 10.23C49.87 9.07 49.62 8.16 49.14 7.52C48.66 6.90 48.02 6.59 47.18 6.59C46.26 6.59 45.47 7.01 44.80 7.83ZM44.86 12.11L44.86 8.68C45.39 7.97 46.03 7.60 46.76 7.60C47.96 7.60 48.58 8.50 48.58 10.23C48.58 11.10 48.41 11.77 48.05 12.25C47.68 12.73 47.15 12.95 46.48 12.95C45.81 12.95 45.28 12.67 44.86 12.11ZM54.14 6.62C53.63 6.62 53.17 6.71 52.75 6.89C52.33 7.07 51.98 7.32 51.70 7.63C51.42 7.94 51.20 8.33 51.04 8.75C50.89 9.17 50.81 9.62 50.81 10.12C50.81 10.74 50.89 11.27 51.06 11.75C51.23 12.22 51.45 12.61 51.76 12.94C52.07 13.26 52.42 13.51 52.84 13.68C53.26 13.85 53.70 13.93 54.19 13.93C54.45 13.93 54.71 13.90 54.96 13.86C55.22 13.82 55.47 13.75 55.72 13.66C55.97 13.58 56.18 13.45 56.41 13.31C56.63 13.17 56.81 13.03 56.97 12.84L56.62 12.38C56.56 12.29 56.49 12.25 56.38 12.25C56.29 12.25 56.21 12.29 56.10 12.36C55.99 12.43 55.85 12.50 55.68 12.59C55.51 12.67 55.31 12.75 55.09 12.82C54.87 12.89 54.59 12.92 54.28 12.92C53.94 12.92 53.66 12.87 53.38 12.75C53.10 12.64 52.88 12.47 52.68 12.25C52.49 12.03 52.32 11.77 52.21 11.44C52.09 11.10 52.04 10.71 52.04 10.26L56.74 10.26C56.85 10.26 56.95 10.22 56.99 10.16C57.04 10.11 57.05 9.97 57.05 9.77C57.05 9.27 56.97 8.82 56.83 8.43C56.69 8.04 56.46 7.70 56.21 7.43C55.96 7.17 55.65 6.97 55.29 6.83C54.92 6.69 54.53 6.62 54.11 6.62ZM54.14 7.55C54.42 7.55 54.68 7.59 54.91 7.69C55.13 7.78 55.33 7.92 55.48 8.09C55.64 8.26 55.73 8.48 55.82 8.72C55.90 8.96 55.94 9.23 55.94 9.51L52.09 9.51C52.18 8.89 52.40 8.40 52.74 8.05C53.07 7.70 53.55 7.53 54.15 7.53ZM65.86 3.68C64.32 3.68 63.06 4.16 62.13 5.11C61.21 6.06 60.73 7.29 60.73 8.81C60.73 10.32 61.18 11.55 62.05 12.50C62.92 13.45 64.09 13.93 65.52 13.93C67.06 13.93 68.26 13.43 69.13 12.42L68.60 11.83C68.54 11.77 68.46 11.75 68.38 11.75C68.29 11.75 68.24 11.79 68.15 11.86C67.79 12.19 67.37 12.42 66.92 12.59C66.61 12.70 66.18 12.75 65.59 12.75C64.58 12.75 63.76 12.42 63.11 11.72C62.44 10.99 62.10 10.01 62.10 8.81C62.10 7.60 62.45 6.64 63.13 5.91C64.19 4.79 65.74 4.55 67.84 5.22C67.84 5.28 67.87 5.49 67.90 5.85C67.93 6.22 67.94 6.43 67.96 6.48C67.98 6.65 68.10 6.73 68.26 6.73L68.94 6.73L68.94 5.17L68.94 4.38C67.66 3.91 66.61 3.67 65.83 3.67ZM71.97 8.18L71.89 7.07C71.86 6.94 71.83 6.86 71.78 6.80C71.72 6.75 71.65 6.73 71.51 6.73L70.80 6.73L69.79 6.73L69.79 7.32C69.79 7.46 69.86 7.56 70.00 7.59C70.08 7.62 70.35 7.67 70.80 7.76L70.80 12.81L70.00 12.96C69.86 12.99 69.79 13.09 69.79 13.23L69.79 13.82L73.05 13.82L73.05 13.23C73.05 13.09 72.98 12.99 72.84 12.96C72.42 12.88 72.16 12.84 72.04 12.81L72.04 9.31C72.44 8.33 73.05 7.83 73.86 7.83C74.12 7.83 74.30 7.85 74.44 7.90C74.58 7.94 74.69 7.97 74.77 7.97C74.86 7.97 74.93 7.90 74.96 7.78L75.11 6.85C74.83 6.68 74.51 6.59 74.14 6.59C73.22 6.59 72.51 7.13 71.99 8.18ZM81.70 12.95C81.62 12.92 81.20 12.84 81.00 12.80L81.00 9.25C81.00 8.86 80.96 8.50 80.85 8.16C80.74 7.83 80.58 7.55 80.37 7.32C80.16 7.10 79.91 6.93 79.60 6.79C79.30 6.65 78.93 6.59 78.54 6.59C77.98 6.59 77.48 6.68 77.03 6.87C76.58 7.07 76.16 7.34 75.77 7.71L75.99 8.11C76.02 8.16 76.08 8.23 76.13 8.27C76.19 8.32 76.27 8.33 76.36 8.33C76.47 8.33 76.57 8.30 76.68 8.22C76.79 8.13 76.93 8.06 77.08 7.97C77.24 7.87 77.41 7.80 77.62 7.71C77.83 7.63 78.08 7.59 78.39 7.59C78.85 7.59 79.20 7.74 79.44 8.02C79.67 8.30 79.80 8.72 79.80 9.28L79.80 9.83C78.99 9.83 78.32 9.88 77.76 10.01C77.20 10.14 76.75 10.32 76.41 10.51C76.08 10.71 75.81 10.96 75.66 11.21C75.50 11.47 75.43 11.75 75.43 12.03C75.43 12.35 75.47 12.63 75.59 12.87C75.70 13.10 75.84 13.30 76.01 13.45C76.17 13.61 76.40 13.71 76.64 13.79C76.87 13.87 77.11 13.92 77.39 13.92C77.67 13.92 77.92 13.90 78.15 13.85C78.37 13.79 78.57 13.72 78.76 13.64C78.96 13.55 79.16 13.44 79.32 13.30C79.49 13.16 79.69 13.01 79.88 12.84L80.02 13.51C80.05 13.62 80.08 13.71 80.16 13.73C80.25 13.76 80.35 13.79 80.46 13.79L80.91 13.79L81.00 13.79L81.91 13.79L81.91 13.19C81.91 13.06 81.83 12.95 81.70 12.92ZM79.77 12.08C79.63 12.22 79.49 12.36 79.35 12.47C79.21 12.59 79.06 12.70 78.89 12.78C78.72 12.87 78.55 12.92 78.37 12.96C78.19 13.01 78.01 13.03 77.78 13.03C77.62 13.03 77.46 13.01 77.32 12.96C77.18 12.92 77.07 12.87 76.96 12.78C76.85 12.70 76.76 12.59 76.71 12.45C76.65 12.31 76.61 12.17 76.61 11.97C76.61 11.77 76.66 11.61 76.78 11.44C76.89 11.27 77.08 11.13 77.34 11.02C77.59 10.91 77.92 10.79 78.32 10.72C78.71 10.65 79.20 10.63 79.77 10.63ZM90.90 6.73L90.90 7.32C90.90 7.46 90.99 7.56 91.13 7.59C91.60 7.69 91.88 7.74 91.94 7.74L90.79 11.55C90.71 11.86 90.64 12.18 90.58 12.50C90.47 12.07 90.38 11.75 90.33 11.55L88.86 6.96C88.80 6.79 88.69 6.71 88.51 6.71L87.96 6.71C87.79 6.71 87.68 6.79 87.63 6.96L86.14 11.55C86.00 12.00 85.90 12.32 85.86 12.52C85.83 12.29 85.75 11.97 85.67 11.55L84.55 7.74C84.97 7.66 85.23 7.62 85.32 7.59C85.46 7.56 85.53 7.46 85.53 7.32L85.53 6.73L82.36 6.73L82.36 7.32C82.36 7.46 82.45 7.56 82.59 7.59C82.63 7.59 82.77 7.63 83.05 7.69C83.16 7.71 83.26 7.73 83.29 7.73L85.25 13.82L86.20 13.82C86.34 13.82 86.42 13.75 86.48 13.58L88.07 8.78C88.10 8.67 88.13 8.58 88.16 8.47C88.19 8.36 88.19 8.25 88.21 8.13C88.24 8.22 88.26 8.33 88.28 8.44C88.31 8.55 88.34 8.67 88.38 8.78L89.95 13.59C89.99 13.76 90.08 13.82 90.20 13.82L91.18 13.82L93.16 7.74C93.20 7.74 93.31 7.70 93.51 7.67C93.70 7.64 93.80 7.60 93.86 7.60C94.00 7.57 94.07 7.49 94.07 7.35L94.07 6.75ZM97.83 12.95C97.75 12.92 97.50 12.87 97.05 12.78L97.05 3.50L94.78 3.50L94.78 4.10C94.78 4.24 94.86 4.33 95.00 4.35C95.09 4.38 95.34 4.44 95.79 4.52L95.79 12.80L95.00 12.95C94.86 12.98 94.78 13.08 94.78 13.22L94.78 13.82L98.06 13.82L98.06 13.22C98.06 13.08 97.97 12.98 97.83 12.95ZM102.00 6.62C101.50 6.62 101.04 6.71 100.62 6.89C100.20 7.07 99.85 7.32 99.57 7.63C99.29 7.94 99.06 8.33 98.91 8.75C98.76 9.17 98.67 9.62 98.67 10.12C98.67 10.74 98.76 11.27 98.92 11.75C99.09 12.22 99.32 12.61 99.62 12.94C99.93 13.26 100.28 13.51 100.70 13.68C101.12 13.85 101.57 13.93 102.06 13.93C102.31 13.93 102.58 13.90 102.83 13.86C103.08 13.82 103.33 13.75 103.59 13.66C103.84 13.58 104.05 13.45 104.27 13.31C104.50 13.17 104.68 13.03 104.83 12.84L104.48 12.38C104.43 12.29 104.36 12.25 104.24 12.25C104.16 12.25 104.08 12.29 103.96 12.36C103.85 12.43 103.71 12.50 103.54 12.59C103.38 12.67 103.18 12.75 102.96 12.82C102.73 12.89 102.45 12.92 102.14 12.92C101.81 12.92 101.53 12.87 101.25 12.75C100.97 12.64 100.74 12.47 100.55 12.25C100.35 12.03 100.18 11.77 100.07 11.44C99.96 11.10 99.90 10.71 99.90 10.26L104.61 10.26C104.72 10.26 104.82 10.22 104.86 10.16C104.90 10.11 104.92 9.97 104.92 9.77C104.92 9.27 104.83 8.82 104.69 8.43C104.55 8.04 104.33 7.70 104.08 7.43C103.82 7.17 103.52 6.97 103.15 6.83C102.79 6.69 102.40 6.62 101.98 6.62ZM102.00 7.55C102.28 7.55 102.55 7.59 102.77 7.69C103.00 7.78 103.19 7.92 103.35 8.09C103.50 8.26 103.60 8.48 103.68 8.72C103.77 8.96 103.81 9.23 103.81 9.51L99.96 9.51C100.04 8.89 100.27 8.40 100.60 8.05C100.94 7.70 101.42 7.53 102.02 7.53ZM107.94 8.18L107.86 7.07C107.83 6.94 107.80 6.86 107.74 6.80C107.69 6.75 107.62 6.73 107.48 6.73L106.76 6.73L105.76 6.73L105.76 7.32C105.76 7.46 105.83 7.56 105.97 7.59C106.05 7.62 106.32 7.67 106.76 7.76L106.76 12.81L105.97 12.96C105.83 12.99 105.76 13.09 105.76 13.23L105.76 13.82L109.02 13.82L109.02 13.23C109.02 13.09 108.95 12.99 108.81 12.96C108.39 12.88 108.12 12.84 108.01 12.81L108.01 9.31C108.40 8.33 109.02 7.83 109.83 7.83C110.08 7.83 110.26 7.85 110.40 7.90C110.54 7.94 110.66 7.97 110.74 7.97C110.82 7.97 110.89 7.90 110.92 7.78L111.08 6.85C110.80 6.68 110.47 6.59 110.11 6.59C109.19 6.59 108.47 7.13 107.95 8.18ZM124.28 12.95C124.19 12.92 123.89 12.87 123.35 12.78L120.60 8.60L123.21 4.80C123.75 4.72 124.07 4.66 124.18 4.63C124.29 4.61 124.36 4.52 124.36 4.38L124.36 3.78L120.75 3.78L120.75 4.38C120.75 4.52 120.83 4.61 120.97 4.63C121.34 4.70 121.59 4.77 121.76 4.80L119.84 7.66C119.77 7.77 119.71 7.90 119.69 7.99L117.60 4.77C117.91 4.72 118.13 4.68 118.27 4.65C118.41 4.62 118.50 4.52 118.50 4.38L118.50 3.79L114.93 3.79L114.93 4.38C114.93 4.52 115.00 4.62 115.14 4.65C115.22 4.68 115.53 4.73 116.06 4.82L118.68 8.67L115.91 12.81C115.32 12.91 115.01 12.96 114.98 12.96C114.84 12.99 114.76 13.09 114.76 13.23L114.76 13.82L118.37 13.82L118.37 13.23C118.37 13.09 118.30 12.99 118.16 12.96C117.66 12.87 117.39 12.81 117.36 12.81L119.48 9.65C119.53 9.56 119.57 9.46 119.60 9.37L121.80 12.81C121.80 12.81 121.67 12.82 121.44 12.88C121.20 12.94 121.06 12.96 121.00 12.96C120.86 12.99 120.79 13.09 120.79 13.23L120.79 13.82L124.47 13.82L124.47 13.23C124.47 13.09 124.42 12.99 124.28 12.96Z"></path></g><!----><!----></svg>